<mxfile host="app.diagrams.net" agent="Mozilla/5.0 (Windows NT 10.0; Win64; x64) AppleWebKit/537.36 (KHTML, like Gecko) Chrome/130.0.0.0 Safari/537.36" version="24.8.4">
  <diagram name="Seite-1" id="nUT34G9xeOLYj0SszjcQ">
    <mxGraphModel dx="704" dy="646" grid="1" gridSize="10" guides="1" tooltips="1" connect="1" arrows="1" fold="1" page="1" pageScale="1" pageWidth="827" pageHeight="1169" math="0" shadow="0">
      <root>
        <mxCell id="0" />
        <mxCell id="1" parent="0" />
        <mxCell id="TMbh94kAc-SO85xrON7S-257" value="" style="group;fillColor=#f5f5f5;fontColor=#333333;strokeColor=#666666;" parent="1" vertex="1" connectable="0">
          <mxGeometry x="120" y="370" width="560" height="280" as="geometry" />
        </mxCell>
        <mxCell id="TMbh94kAc-SO85xrON7S-27" value="&lt;b&gt;&lt;font style=&quot;font-size: 14px;&quot;&gt;Skill&lt;/font&gt;&lt;/b&gt;" style="rounded=0;whiteSpace=wrap;html=1;fillColor=#fff2cc;strokeColor=#d6b656;verticalAlign=top;" parent="TMbh94kAc-SO85xrON7S-257" vertex="1">
          <mxGeometry width="560" height="280" as="geometry" />
        </mxCell>
        <mxCell id="TMbh94kAc-SO85xrON7S-56" style="edgeStyle=orthogonalEdgeStyle;rounded=0;orthogonalLoop=1;jettySize=auto;html=1;entryX=0.5;entryY=0;entryDx=0;entryDy=0;" parent="TMbh94kAc-SO85xrON7S-257" edge="1">
          <mxGeometry relative="1" as="geometry">
            <mxPoint x="268" y="100" as="sourcePoint" />
            <mxPoint x="268" y="180" as="targetPoint" />
          </mxGeometry>
        </mxCell>
        <mxCell id="TMbh94kAc-SO85xrON7S-66" style="edgeStyle=orthogonalEdgeStyle;rounded=0;orthogonalLoop=1;jettySize=auto;html=1;entryX=1;entryY=0.25;entryDx=0;entryDy=0;" parent="TMbh94kAc-SO85xrON7S-257" source="TMbh94kAc-SO85xrON7S-45" target="TMbh94kAc-SO85xrON7S-51" edge="1">
          <mxGeometry relative="1" as="geometry">
            <Array as="points">
              <mxPoint x="250" y="130" />
            </Array>
          </mxGeometry>
        </mxCell>
        <mxCell id="TMbh94kAc-SO85xrON7S-45" value="BEREIT" style="rounded=1;whiteSpace=wrap;html=1;fillColor=#dae8fc;strokeColor=#6c8ebf;" parent="TMbh94kAc-SO85xrON7S-257" vertex="1">
          <mxGeometry x="219" y="60" width="120" height="40" as="geometry" />
        </mxCell>
        <mxCell id="TMbh94kAc-SO85xrON7S-54" style="edgeStyle=orthogonalEdgeStyle;rounded=0;orthogonalLoop=1;jettySize=auto;html=1;entryX=0;entryY=0.5;entryDx=0;entryDy=0;" parent="TMbh94kAc-SO85xrON7S-257" source="TMbh94kAc-SO85xrON7S-47" target="TMbh94kAc-SO85xrON7S-50" edge="1">
          <mxGeometry relative="1" as="geometry">
            <Array as="points">
              <mxPoint x="369" y="190" />
              <mxPoint x="369" y="150" />
            </Array>
          </mxGeometry>
        </mxCell>
        <mxCell id="TMbh94kAc-SO85xrON7S-55" style="edgeStyle=orthogonalEdgeStyle;rounded=0;orthogonalLoop=1;jettySize=auto;html=1;entryX=0;entryY=0.5;entryDx=0;entryDy=0;" parent="TMbh94kAc-SO85xrON7S-257" source="TMbh94kAc-SO85xrON7S-47" target="TMbh94kAc-SO85xrON7S-48" edge="1">
          <mxGeometry relative="1" as="geometry">
            <Array as="points">
              <mxPoint x="369" y="210" />
              <mxPoint x="369" y="240" />
            </Array>
          </mxGeometry>
        </mxCell>
        <mxCell id="TMbh94kAc-SO85xrON7S-61" style="edgeStyle=orthogonalEdgeStyle;rounded=0;orthogonalLoop=1;jettySize=auto;html=1;entryX=1;entryY=0.75;entryDx=0;entryDy=0;" parent="TMbh94kAc-SO85xrON7S-257" source="TMbh94kAc-SO85xrON7S-47" target="TMbh94kAc-SO85xrON7S-51" edge="1">
          <mxGeometry relative="1" as="geometry">
            <Array as="points">
              <mxPoint x="195" y="190" />
              <mxPoint x="195" y="150" />
            </Array>
          </mxGeometry>
        </mxCell>
        <mxCell id="TMbh94kAc-SO85xrON7S-62" style="edgeStyle=orthogonalEdgeStyle;rounded=0;orthogonalLoop=1;jettySize=auto;html=1;" parent="TMbh94kAc-SO85xrON7S-257" source="TMbh94kAc-SO85xrON7S-47" target="TMbh94kAc-SO85xrON7S-49" edge="1">
          <mxGeometry relative="1" as="geometry">
            <Array as="points">
              <mxPoint x="195" y="210" />
              <mxPoint x="195" y="240" />
            </Array>
          </mxGeometry>
        </mxCell>
        <mxCell id="3WOX_D658Z19YrmmToyO-32" style="edgeStyle=orthogonalEdgeStyle;rounded=0;orthogonalLoop=1;jettySize=auto;html=1;entryX=0.5;entryY=1;entryDx=0;entryDy=0;" parent="TMbh94kAc-SO85xrON7S-257" edge="1">
          <mxGeometry relative="1" as="geometry">
            <mxPoint x="300" y="180" as="sourcePoint" />
            <mxPoint x="300" y="100" as="targetPoint" />
          </mxGeometry>
        </mxCell>
        <mxCell id="TMbh94kAc-SO85xrON7S-47" value="LAUFEND" style="rounded=1;whiteSpace=wrap;html=1;fillColor=#dae8fc;strokeColor=#6c8ebf;" parent="TMbh94kAc-SO85xrON7S-257" vertex="1">
          <mxGeometry x="219" y="180" width="120" height="40" as="geometry" />
        </mxCell>
        <mxCell id="TMbh94kAc-SO85xrON7S-60" style="edgeStyle=orthogonalEdgeStyle;rounded=0;orthogonalLoop=1;jettySize=auto;html=1;entryX=1;entryY=0.25;entryDx=0;entryDy=0;" parent="TMbh94kAc-SO85xrON7S-257" source="TMbh94kAc-SO85xrON7S-48" target="TMbh94kAc-SO85xrON7S-45" edge="1">
          <mxGeometry relative="1" as="geometry">
            <Array as="points">
              <mxPoint x="550" y="240" />
              <mxPoint x="550" y="70" />
            </Array>
          </mxGeometry>
        </mxCell>
        <mxCell id="TMbh94kAc-SO85xrON7S-48" value="ERREICHT" style="rounded=1;whiteSpace=wrap;html=1;" parent="TMbh94kAc-SO85xrON7S-257" vertex="1">
          <mxGeometry x="414" y="220" width="120" height="40" as="geometry" />
        </mxCell>
        <mxCell id="TMbh94kAc-SO85xrON7S-63" style="edgeStyle=orthogonalEdgeStyle;rounded=0;orthogonalLoop=1;jettySize=auto;html=1;entryX=0;entryY=0.25;entryDx=0;entryDy=0;" parent="TMbh94kAc-SO85xrON7S-257" source="TMbh94kAc-SO85xrON7S-49" target="TMbh94kAc-SO85xrON7S-45" edge="1">
          <mxGeometry relative="1" as="geometry">
            <Array as="points">
              <mxPoint x="20" y="240" />
              <mxPoint x="20" y="70" />
            </Array>
          </mxGeometry>
        </mxCell>
        <mxCell id="TMbh94kAc-SO85xrON7S-49" value="LIMIT" style="rounded=1;whiteSpace=wrap;html=1;" parent="TMbh94kAc-SO85xrON7S-257" vertex="1">
          <mxGeometry x="50" y="220" width="120" height="40" as="geometry" />
        </mxCell>
        <mxCell id="TMbh94kAc-SO85xrON7S-59" style="edgeStyle=orthogonalEdgeStyle;rounded=0;orthogonalLoop=1;jettySize=auto;html=1;entryX=1;entryY=0.75;entryDx=0;entryDy=0;" parent="TMbh94kAc-SO85xrON7S-257" source="TMbh94kAc-SO85xrON7S-50" target="TMbh94kAc-SO85xrON7S-45" edge="1">
          <mxGeometry relative="1" as="geometry">
            <Array as="points">
              <mxPoint x="474" y="90" />
            </Array>
          </mxGeometry>
        </mxCell>
        <mxCell id="TMbh94kAc-SO85xrON7S-50" value="ABGESCHLOSSEN" style="rounded=1;whiteSpace=wrap;html=1;fillColor=#dae8fc;strokeColor=#6c8ebf;" parent="TMbh94kAc-SO85xrON7S-257" vertex="1">
          <mxGeometry x="414" y="130" width="120" height="40" as="geometry" />
        </mxCell>
        <mxCell id="TMbh94kAc-SO85xrON7S-65" style="edgeStyle=orthogonalEdgeStyle;rounded=0;orthogonalLoop=1;jettySize=auto;html=1;entryX=0;entryY=0.75;entryDx=0;entryDy=0;" parent="TMbh94kAc-SO85xrON7S-257" source="TMbh94kAc-SO85xrON7S-51" target="TMbh94kAc-SO85xrON7S-45" edge="1">
          <mxGeometry relative="1" as="geometry">
            <Array as="points">
              <mxPoint x="110" y="90" />
            </Array>
          </mxGeometry>
        </mxCell>
        <mxCell id="TMbh94kAc-SO85xrON7S-51" value="FEHLER" style="rounded=1;whiteSpace=wrap;html=1;fillColor=#dae8fc;strokeColor=#6c8ebf;" parent="TMbh94kAc-SO85xrON7S-257" vertex="1">
          <mxGeometry x="50" y="120" width="120" height="40" as="geometry" />
        </mxCell>
        <mxCell id="TMbh94kAc-SO85xrON7S-67" value="" style="ellipse;html=1;shape=startState;fillColor=#000000;strokeColor=#ff0000;" parent="TMbh94kAc-SO85xrON7S-257" vertex="1">
          <mxGeometry x="30" y="20" width="30" height="30" as="geometry" />
        </mxCell>
        <mxCell id="TMbh94kAc-SO85xrON7S-68" value="" style="edgeStyle=orthogonalEdgeStyle;html=1;verticalAlign=bottom;endArrow=classic;endSize=8;strokeColor=#ff0000;rounded=0;endFill=1;entryX=0.5;entryY=0;entryDx=0;entryDy=0;" parent="TMbh94kAc-SO85xrON7S-257" source="TMbh94kAc-SO85xrON7S-67" target="TMbh94kAc-SO85xrON7S-45" edge="1">
          <mxGeometry relative="1" as="geometry">
            <mxPoint x="25" y="80" as="targetPoint" />
          </mxGeometry>
        </mxCell>
        <mxCell id="TMbh94kAc-SO85xrON7S-219" value="Starten" style="text;html=1;align=left;verticalAlign=middle;whiteSpace=wrap;rounded=0;fontSize=6;container=0;" parent="TMbh94kAc-SO85xrON7S-257" vertex="1">
          <mxGeometry x="240" y="145" width="60" height="10" as="geometry" />
        </mxCell>
        <mxCell id="TMbh94kAc-SO85xrON7S-247" value="Objekt fertig" style="text;html=1;align=center;verticalAlign=middle;whiteSpace=wrap;rounded=0;fontSize=6;container=0;" parent="TMbh94kAc-SO85xrON7S-257" vertex="1">
          <mxGeometry x="355" y="140" width="60" height="10" as="geometry" />
        </mxCell>
        <mxCell id="TMbh94kAc-SO85xrON7S-248" value="Skill fertig" style="text;html=1;align=center;verticalAlign=middle;whiteSpace=wrap;rounded=0;fontSize=6;container=0;" parent="TMbh94kAc-SO85xrON7S-257" vertex="1">
          <mxGeometry x="380" y="80" width="60" height="10" as="geometry" />
        </mxCell>
        <mxCell id="TMbh94kAc-SO85xrON7S-250" value="Resetten" style="text;html=1;align=center;verticalAlign=middle;whiteSpace=wrap;rounded=0;fontSize=6;container=0;" parent="TMbh94kAc-SO85xrON7S-257" vertex="1">
          <mxGeometry x="140" y="80" width="60" height="10" as="geometry" />
        </mxCell>
        <mxCell id="TMbh94kAc-SO85xrON7S-251" value="Resetten" style="text;html=1;align=center;verticalAlign=middle;whiteSpace=wrap;rounded=0;fontSize=6;container=0;" parent="TMbh94kAc-SO85xrON7S-257" vertex="1">
          <mxGeometry x="80" y="60" width="60" height="10" as="geometry" />
        </mxCell>
        <mxCell id="TMbh94kAc-SO85xrON7S-252" value="Skill fertig" style="text;html=1;align=center;verticalAlign=middle;whiteSpace=wrap;rounded=0;fontSize=6;container=0;" parent="TMbh94kAc-SO85xrON7S-257" vertex="1">
          <mxGeometry x="440" y="60" width="60" height="10" as="geometry" />
        </mxCell>
        <mxCell id="TMbh94kAc-SO85xrON7S-253" value="Wert erreicht" style="text;html=1;align=center;verticalAlign=middle;whiteSpace=wrap;rounded=0;fontSize=6;container=0;" parent="TMbh94kAc-SO85xrON7S-257" vertex="1">
          <mxGeometry x="354" y="240" width="60" height="10" as="geometry" />
        </mxCell>
        <mxCell id="TMbh94kAc-SO85xrON7S-254" value="Limit überschritten" style="text;html=1;align=center;verticalAlign=middle;whiteSpace=wrap;rounded=0;fontSize=6;container=0;" parent="TMbh94kAc-SO85xrON7S-257" vertex="1">
          <mxGeometry x="177" y="240" width="60" height="10" as="geometry" />
        </mxCell>
        <mxCell id="TMbh94kAc-SO85xrON7S-255" value="Fehler" style="text;html=1;align=center;verticalAlign=middle;whiteSpace=wrap;rounded=0;fontSize=6;container=0;" parent="TMbh94kAc-SO85xrON7S-257" vertex="1">
          <mxGeometry x="180" y="120" width="60" height="10" as="geometry" />
        </mxCell>
        <mxCell id="TMbh94kAc-SO85xrON7S-256" value="Fehler" style="text;html=1;align=center;verticalAlign=middle;whiteSpace=wrap;rounded=0;fontSize=6;container=0;" parent="TMbh94kAc-SO85xrON7S-257" vertex="1">
          <mxGeometry x="160" y="140" width="60" height="10" as="geometry" />
        </mxCell>
        <mxCell id="3WOX_D658Z19YrmmToyO-33" value="Stoppen" style="text;html=1;align=left;verticalAlign=middle;whiteSpace=wrap;rounded=0;fontSize=6;container=0;" parent="TMbh94kAc-SO85xrON7S-257" vertex="1">
          <mxGeometry x="300" y="135" width="60" height="10" as="geometry" />
        </mxCell>
        <mxCell id="Yjvfa3K74wiIcRD2Wd3R-2" value="1" style="ellipse;whiteSpace=wrap;html=1;aspect=fixed;fillColor=#dae8fc;strokeColor=#6c8ebf;fontSize=10;" vertex="1" parent="TMbh94kAc-SO85xrON7S-257">
          <mxGeometry x="310" y="30" width="20" height="20" as="geometry" />
        </mxCell>
        <mxCell id="Yjvfa3K74wiIcRD2Wd3R-46" style="rounded=0;orthogonalLoop=1;jettySize=auto;html=1;entryX=0.75;entryY=0;entryDx=0;entryDy=0;endArrow=none;endFill=0;" edge="1" parent="TMbh94kAc-SO85xrON7S-257" source="Yjvfa3K74wiIcRD2Wd3R-37" target="TMbh94kAc-SO85xrON7S-49">
          <mxGeometry relative="1" as="geometry" />
        </mxCell>
        <mxCell id="Yjvfa3K74wiIcRD2Wd3R-37" value="2" style="ellipse;whiteSpace=wrap;html=1;aspect=fixed;fontSize=10;" vertex="1" parent="TMbh94kAc-SO85xrON7S-257">
          <mxGeometry x="140" y="190" width="20" height="20" as="geometry" />
        </mxCell>
        <mxCell id="Yjvfa3K74wiIcRD2Wd3R-47" style="rounded=0;orthogonalLoop=1;jettySize=auto;html=1;entryX=0.75;entryY=0;entryDx=0;entryDy=0;endArrow=none;endFill=0;" edge="1" parent="TMbh94kAc-SO85xrON7S-257" source="Yjvfa3K74wiIcRD2Wd3R-36" target="TMbh94kAc-SO85xrON7S-48">
          <mxGeometry relative="1" as="geometry" />
        </mxCell>
        <mxCell id="Yjvfa3K74wiIcRD2Wd3R-36" value="3" style="ellipse;whiteSpace=wrap;html=1;aspect=fixed;fontSize=10;" vertex="1" parent="TMbh94kAc-SO85xrON7S-257">
          <mxGeometry x="504" y="190" width="20" height="20" as="geometry" />
        </mxCell>
        <mxCell id="Yjvfa3K74wiIcRD2Wd3R-38" value="0" style="ellipse;whiteSpace=wrap;html=1;aspect=fixed;fillColor=none;strokeColor=none;fontSize=8;" vertex="1" parent="TMbh94kAc-SO85xrON7S-257">
          <mxGeometry x="216" y="57" width="20" height="20" as="geometry" />
        </mxCell>
        <mxCell id="Yjvfa3K74wiIcRD2Wd3R-39" value="1" style="ellipse;whiteSpace=wrap;html=1;aspect=fixed;fillColor=none;strokeColor=none;fontSize=8;" vertex="1" parent="TMbh94kAc-SO85xrON7S-257">
          <mxGeometry x="215" y="177" width="20" height="20" as="geometry" />
        </mxCell>
        <mxCell id="Yjvfa3K74wiIcRD2Wd3R-40" value="3" style="ellipse;whiteSpace=wrap;html=1;aspect=fixed;fillColor=none;strokeColor=none;fontSize=8;" vertex="1" parent="TMbh94kAc-SO85xrON7S-257">
          <mxGeometry x="411" y="126" width="20" height="20" as="geometry" />
        </mxCell>
        <mxCell id="Yjvfa3K74wiIcRD2Wd3R-41" value="4" style="ellipse;whiteSpace=wrap;html=1;aspect=fixed;fillColor=none;strokeColor=none;fontSize=8;" vertex="1" parent="TMbh94kAc-SO85xrON7S-257">
          <mxGeometry x="46" y="117" width="20" height="20" as="geometry" />
        </mxCell>
        <mxCell id="Yjvfa3K74wiIcRD2Wd3R-42" value="4" style="ellipse;whiteSpace=wrap;html=1;aspect=fixed;fillColor=none;strokeColor=none;fontSize=8;" vertex="1" parent="TMbh94kAc-SO85xrON7S-257">
          <mxGeometry x="46" y="217" width="20" height="20" as="geometry" />
        </mxCell>
        <mxCell id="Yjvfa3K74wiIcRD2Wd3R-43" value="5" style="ellipse;whiteSpace=wrap;html=1;aspect=fixed;fillColor=none;strokeColor=none;fontSize=8;" vertex="1" parent="TMbh94kAc-SO85xrON7S-257">
          <mxGeometry x="411" y="217" width="20" height="20" as="geometry" />
        </mxCell>
        <mxCell id="Yjvfa3K74wiIcRD2Wd3R-44" style="rounded=1;orthogonalLoop=1;jettySize=auto;html=1;entryX=0.75;entryY=0;entryDx=0;entryDy=0;endArrow=none;endFill=0;curved=0;" edge="1" parent="TMbh94kAc-SO85xrON7S-257" source="Yjvfa3K74wiIcRD2Wd3R-2" target="TMbh94kAc-SO85xrON7S-45">
          <mxGeometry relative="1" as="geometry" />
        </mxCell>
      </root>
    </mxGraphModel>
  </diagram>
</mxfile>
